<svg fill="none" height="24" width="24" xmlns="http://www.w3.org/2000/svg"><g clip-rule="evenodd" fill="#818c99" fill-rule="evenodd"><path d="M12 13a1 1 0 0 1 1 1v2a1 1 0 1 1-2 0v-2a1 1 0 0 1 1-1z"></path><path d="M18.77 8.53a4.53 4.53 0 0 0-1.87-.4V7a4.9 4.9 0 1 0-9.8 0v1.12c-.64.03-1.3.11-1.87.4a3.9 3.9 0 0 0-1.7 1.7c-.24.48-.34.98-.39 1.54-.04.53-.04 1.2-.04 2v2.48c0 .8 0 1.47.04 2 .05.56.15 1.06.38 1.53a3.9 3.9 0 0 0 1.7 1.7c.48.24.98.34 1.54.39.53.04 1.2.04 2 .04h6.48c.8 0 1.47 0 2-.04a3.98 3.98 0 0 0 1.53-.38 3.9 3.9 0 0 0 1.7-1.7c.24-.48.34-.98.39-1.54.04-.53.04-1.2.04-2v-2.48c0-.8 0-1.47-.04-2a3.98 3.98 0 0 0-.39-1.53 3.9 3.9 0 0 0-1.7-1.7zM6.9 9.93c-.44.04-.68.11-.85.2a2.1 2.1 0 0 0-.92.92c-.09.17-.15.4-.2.85-.03.46-.03 1.05-.03 1.9v2.4c0 .85 0 1.44.04 1.9.03.44.1.68.19.85a2.1 2.1 0 0 0 .92.92c.17.09.4.16.85.2.46.03 1.05.03 1.9.03h6.4c.86 0 1.44 0 1.9-.04.44-.03.68-.1.85-.19a2.1 2.1 0 0 0 .92-.92c.09-.17.16-.4.2-.85.03-.46.03-1.05.03-1.9v-2.4c0-.86 0-1.44-.04-1.9-.03-.44-.1-.68-.19-.85a2.1 2.1 0 0 0-.92-.92 2.24 2.24 0 0 0-.85-.2c-.46-.03-1.05-.03-1.9-.03H8.8c-.85 0-1.44 0-1.9.04zM15.1 7a3.1 3.1 0 1 0-6.2 0v1.1h6.2z"></path><path d="M13 14a1 1 0 1 0-2 0v2a1 1 0 1 0 2 0z"></path></g></svg>