<?xml version="1.0" encoding="utf-8"?>
<!-- Generator: Adobe Illustrator 25.0.1, SVG Export Plug-In . SVG Version: 6.00 Build 0)  -->
<svg version="1.1" id="Layer_1" xmlns="http://www.w3.org/2000/svg" xmlns:xlink="http://www.w3.org/1999/xlink" x="0px" y="0px"
	 viewBox="0 0 24 24" style="enable-background:new 0 0 24 24;" xml:space="preserve">
<style type="text/css">
	.st0{fill:none;}
	.st1{fill:#EA4E4E;}
</style>
<path class="st0" d="M0,0h24v24H0V0z"/>
<path class="st1" d="M16,4c-1.5,0.1-2.8,0.7-3.9,1.7L12,5.8l-0.1-0.1C10.8,4.6,9.3,4,7.7,4C4.6,4,2,6.6,2,9.7s1.1,4.6,6.2,8.5
	l2.7,2.1c0.7,0.5,1.6,0.5,2.3,0l2.4-1.8l0.9-0.7C21,14.1,22,12.7,22,9.7C22,6.6,19.4,4,16.3,4H16z"/>
</svg>
